<mxfile host="app.diagrams.net" modified="2023-04-12T08:09:13.636Z" agent="Mozilla/5.0 (Windows NT 10.0; Win64; x64) AppleWebKit/537.36 (KHTML, like Gecko) Chrome/112.0.0.0 Safari/537.36 Edg/112.0.1722.34" etag="3_8V9BYuVS_Kfr3hxSlY" version="21.1.6" type="github">
  <diagram name="Page-1" id="nAX_bLFNxQTDbBxWJkh-">
    <mxGraphModel dx="880" dy="518" grid="1" gridSize="10" guides="1" tooltips="1" connect="1" arrows="1" fold="1" page="1" pageScale="1" pageWidth="850" pageHeight="1100" math="0" shadow="0">
      <root>
        <mxCell id="0" />
        <mxCell id="1" parent="0" />
        <mxCell id="w8OO3xetrZ0Cky9kUs7j-1" value="&lt;p style=&quot;line-height: 120%;&quot;&gt;&lt;font style=&quot;font-size: 19px;&quot;&gt;Student&lt;/font&gt;&lt;/p&gt;" style="rounded=0;whiteSpace=wrap;html=1;" vertex="1" parent="1">
          <mxGeometry x="365" y="50" width="120" height="50" as="geometry" />
        </mxCell>
        <mxCell id="w8OO3xetrZ0Cky9kUs7j-4" style="edgeStyle=orthogonalEdgeStyle;rounded=0;orthogonalLoop=1;jettySize=auto;html=1;exitX=0.5;exitY=1;exitDx=0;exitDy=0;exitPerimeter=0;entryX=0.5;entryY=0;entryDx=0;entryDy=0;" edge="1" parent="1" source="w8OO3xetrZ0Cky9kUs7j-2" target="w8OO3xetrZ0Cky9kUs7j-3">
          <mxGeometry relative="1" as="geometry" />
        </mxCell>
        <mxCell id="w8OO3xetrZ0Cky9kUs7j-2" value="Start" style="strokeWidth=2;html=1;shape=mxgraph.flowchart.start_1;whiteSpace=wrap;" vertex="1" parent="1">
          <mxGeometry x="375.5" y="150" width="100" height="60" as="geometry" />
        </mxCell>
        <mxCell id="w8OO3xetrZ0Cky9kUs7j-6" style="edgeStyle=orthogonalEdgeStyle;rounded=0;orthogonalLoop=1;jettySize=auto;html=1;exitX=0.5;exitY=1;exitDx=0;exitDy=0;" edge="1" parent="1" source="w8OO3xetrZ0Cky9kUs7j-3" target="w8OO3xetrZ0Cky9kUs7j-5">
          <mxGeometry relative="1" as="geometry" />
        </mxCell>
        <mxCell id="w8OO3xetrZ0Cky9kUs7j-3" value="Homepage" style="shape=parallelogram;html=1;strokeWidth=2;perimeter=parallelogramPerimeter;whiteSpace=wrap;rounded=1;arcSize=12;size=0.23;" vertex="1" parent="1">
          <mxGeometry x="375" y="250" width="100" height="60" as="geometry" />
        </mxCell>
        <mxCell id="w8OO3xetrZ0Cky9kUs7j-8" style="edgeStyle=orthogonalEdgeStyle;rounded=0;orthogonalLoop=1;jettySize=auto;html=1;exitX=0.5;exitY=1;exitDx=0;exitDy=0;entryX=0.5;entryY=0;entryDx=0;entryDy=0;entryPerimeter=0;" edge="1" parent="1" source="w8OO3xetrZ0Cky9kUs7j-5" target="w8OO3xetrZ0Cky9kUs7j-7">
          <mxGeometry relative="1" as="geometry" />
        </mxCell>
        <mxCell id="w8OO3xetrZ0Cky9kUs7j-5" value="Student Log In" style="rounded=1;whiteSpace=wrap;html=1;absoluteArcSize=1;arcSize=14;strokeWidth=2;" vertex="1" parent="1">
          <mxGeometry x="383" y="350" width="85" height="70" as="geometry" />
        </mxCell>
        <mxCell id="w8OO3xetrZ0Cky9kUs7j-9" style="edgeStyle=orthogonalEdgeStyle;rounded=0;orthogonalLoop=1;jettySize=auto;html=1;exitX=0;exitY=0.5;exitDx=0;exitDy=0;exitPerimeter=0;" edge="1" parent="1" source="w8OO3xetrZ0Cky9kUs7j-7">
          <mxGeometry relative="1" as="geometry">
            <mxPoint x="420" y="440" as="targetPoint" />
          </mxGeometry>
        </mxCell>
        <mxCell id="w8OO3xetrZ0Cky9kUs7j-11" style="edgeStyle=orthogonalEdgeStyle;rounded=0;orthogonalLoop=1;jettySize=auto;html=1;exitX=0.5;exitY=1;exitDx=0;exitDy=0;exitPerimeter=0;entryX=0.5;entryY=0;entryDx=0;entryDy=0;" edge="1" parent="1" source="w8OO3xetrZ0Cky9kUs7j-7" target="w8OO3xetrZ0Cky9kUs7j-10">
          <mxGeometry relative="1" as="geometry" />
        </mxCell>
        <mxCell id="w8OO3xetrZ0Cky9kUs7j-7" value="User &lt;br&gt;Password&lt;br&gt;Correct?" style="strokeWidth=2;html=1;shape=mxgraph.flowchart.decision;whiteSpace=wrap;" vertex="1" parent="1">
          <mxGeometry x="375" y="460" width="100" height="100" as="geometry" />
        </mxCell>
        <mxCell id="w8OO3xetrZ0Cky9kUs7j-20" style="edgeStyle=orthogonalEdgeStyle;rounded=0;orthogonalLoop=1;jettySize=auto;html=1;exitX=0;exitY=0.5;exitDx=0;exitDy=0;entryX=0.59;entryY=-0.067;entryDx=0;entryDy=0;entryPerimeter=0;" edge="1" parent="1" source="w8OO3xetrZ0Cky9kUs7j-10" target="w8OO3xetrZ0Cky9kUs7j-16">
          <mxGeometry relative="1" as="geometry" />
        </mxCell>
        <mxCell id="w8OO3xetrZ0Cky9kUs7j-21" style="edgeStyle=orthogonalEdgeStyle;rounded=0;orthogonalLoop=1;jettySize=auto;html=1;exitX=0;exitY=0.5;exitDx=0;exitDy=0;entryX=0.59;entryY=-0.067;entryDx=0;entryDy=0;entryPerimeter=0;" edge="1" parent="1" source="w8OO3xetrZ0Cky9kUs7j-10" target="w8OO3xetrZ0Cky9kUs7j-15">
          <mxGeometry relative="1" as="geometry" />
        </mxCell>
        <mxCell id="w8OO3xetrZ0Cky9kUs7j-22" style="edgeStyle=orthogonalEdgeStyle;rounded=0;orthogonalLoop=1;jettySize=auto;html=1;exitX=1;exitY=0.5;exitDx=0;exitDy=0;entryX=0.618;entryY=-0.017;entryDx=0;entryDy=0;entryPerimeter=0;" edge="1" parent="1" source="w8OO3xetrZ0Cky9kUs7j-10" target="w8OO3xetrZ0Cky9kUs7j-18">
          <mxGeometry relative="1" as="geometry" />
        </mxCell>
        <mxCell id="w8OO3xetrZ0Cky9kUs7j-23" style="edgeStyle=orthogonalEdgeStyle;rounded=0;orthogonalLoop=1;jettySize=auto;html=1;exitX=1;exitY=0.5;exitDx=0;exitDy=0;entryX=0.618;entryY=0;entryDx=0;entryDy=0;entryPerimeter=0;" edge="1" parent="1" source="w8OO3xetrZ0Cky9kUs7j-10" target="w8OO3xetrZ0Cky9kUs7j-19">
          <mxGeometry relative="1" as="geometry" />
        </mxCell>
        <mxCell id="w8OO3xetrZ0Cky9kUs7j-24" style="edgeStyle=orthogonalEdgeStyle;rounded=0;orthogonalLoop=1;jettySize=auto;html=1;exitX=0.5;exitY=1;exitDx=0;exitDy=0;entryX=0.581;entryY=0.017;entryDx=0;entryDy=0;entryPerimeter=0;" edge="1" parent="1" source="w8OO3xetrZ0Cky9kUs7j-10" target="w8OO3xetrZ0Cky9kUs7j-17">
          <mxGeometry relative="1" as="geometry" />
        </mxCell>
        <mxCell id="w8OO3xetrZ0Cky9kUs7j-10" value="System Dashboard" style="shape=parallelogram;html=1;strokeWidth=2;perimeter=parallelogramPerimeter;whiteSpace=wrap;rounded=1;arcSize=12;size=0.23;" vertex="1" parent="1">
          <mxGeometry x="375.5" y="610" width="100" height="60" as="geometry" />
        </mxCell>
        <mxCell id="w8OO3xetrZ0Cky9kUs7j-12" style="edgeStyle=orthogonalEdgeStyle;rounded=0;orthogonalLoop=1;jettySize=auto;html=1;exitX=0.5;exitY=1;exitDx=0;exitDy=0;" edge="1" parent="1" source="w8OO3xetrZ0Cky9kUs7j-10" target="w8OO3xetrZ0Cky9kUs7j-10">
          <mxGeometry relative="1" as="geometry" />
        </mxCell>
        <mxCell id="w8OO3xetrZ0Cky9kUs7j-13" value="No" style="text;html=1;align=center;verticalAlign=middle;resizable=0;points=[];autosize=1;strokeColor=none;fillColor=none;" vertex="1" parent="1">
          <mxGeometry x="325" y="460" width="40" height="30" as="geometry" />
        </mxCell>
        <mxCell id="w8OO3xetrZ0Cky9kUs7j-14" value="Yes" style="text;html=1;align=center;verticalAlign=middle;resizable=0;points=[];autosize=1;strokeColor=none;fillColor=none;" vertex="1" parent="1">
          <mxGeometry x="391" y="567" width="40" height="30" as="geometry" />
        </mxCell>
        <mxCell id="w8OO3xetrZ0Cky9kUs7j-32" style="edgeStyle=orthogonalEdgeStyle;rounded=0;orthogonalLoop=1;jettySize=auto;html=1;exitX=0.5;exitY=1;exitDx=0;exitDy=0;entryX=0;entryY=0.5;entryDx=0;entryDy=0;" edge="1" parent="1" source="w8OO3xetrZ0Cky9kUs7j-15" target="w8OO3xetrZ0Cky9kUs7j-27">
          <mxGeometry relative="1" as="geometry" />
        </mxCell>
        <mxCell id="w8OO3xetrZ0Cky9kUs7j-15" value="Update Info" style="shape=parallelogram;html=1;strokeWidth=2;perimeter=parallelogramPerimeter;whiteSpace=wrap;rounded=1;arcSize=12;size=0.23;" vertex="1" parent="1">
          <mxGeometry x="240" y="720" width="100" height="60" as="geometry" />
        </mxCell>
        <mxCell id="w8OO3xetrZ0Cky9kUs7j-30" style="edgeStyle=orthogonalEdgeStyle;rounded=0;orthogonalLoop=1;jettySize=auto;html=1;exitX=0.5;exitY=1;exitDx=0;exitDy=0;entryX=0;entryY=0.5;entryDx=0;entryDy=0;" edge="1" parent="1" source="w8OO3xetrZ0Cky9kUs7j-16" target="w8OO3xetrZ0Cky9kUs7j-27">
          <mxGeometry relative="1" as="geometry" />
        </mxCell>
        <mxCell id="w8OO3xetrZ0Cky9kUs7j-16" value="View Profile" style="shape=parallelogram;html=1;strokeWidth=2;perimeter=parallelogramPerimeter;whiteSpace=wrap;rounded=1;arcSize=12;size=0.23;" vertex="1" parent="1">
          <mxGeometry x="110" y="720" width="100" height="60" as="geometry" />
        </mxCell>
        <mxCell id="w8OO3xetrZ0Cky9kUs7j-29" style="edgeStyle=orthogonalEdgeStyle;rounded=0;orthogonalLoop=1;jettySize=auto;html=1;exitX=0.5;exitY=1;exitDx=0;exitDy=0;entryX=0.5;entryY=0;entryDx=0;entryDy=0;" edge="1" parent="1" source="w8OO3xetrZ0Cky9kUs7j-17" target="w8OO3xetrZ0Cky9kUs7j-27">
          <mxGeometry relative="1" as="geometry">
            <Array as="points">
              <mxPoint x="425" y="780" />
            </Array>
          </mxGeometry>
        </mxCell>
        <mxCell id="w8OO3xetrZ0Cky9kUs7j-17" value="Search Books" style="shape=parallelogram;html=1;strokeWidth=2;perimeter=parallelogramPerimeter;whiteSpace=wrap;rounded=1;arcSize=12;size=0.23;" vertex="1" parent="1">
          <mxGeometry x="365" y="720" width="105" height="60" as="geometry" />
        </mxCell>
        <mxCell id="w8OO3xetrZ0Cky9kUs7j-33" style="edgeStyle=orthogonalEdgeStyle;rounded=0;orthogonalLoop=1;jettySize=auto;html=1;exitX=0.5;exitY=1;exitDx=0;exitDy=0;entryX=1;entryY=0.5;entryDx=0;entryDy=0;" edge="1" parent="1" source="w8OO3xetrZ0Cky9kUs7j-18" target="w8OO3xetrZ0Cky9kUs7j-27">
          <mxGeometry relative="1" as="geometry" />
        </mxCell>
        <mxCell id="w8OO3xetrZ0Cky9kUs7j-18" value="Borrow books" style="shape=parallelogram;html=1;strokeWidth=2;perimeter=parallelogramPerimeter;whiteSpace=wrap;rounded=1;arcSize=12;size=0.23;" vertex="1" parent="1">
          <mxGeometry x="500" y="720" width="110" height="60" as="geometry" />
        </mxCell>
        <mxCell id="w8OO3xetrZ0Cky9kUs7j-34" style="edgeStyle=orthogonalEdgeStyle;rounded=0;orthogonalLoop=1;jettySize=auto;html=1;exitX=0.5;exitY=1;exitDx=0;exitDy=0;entryX=1;entryY=0.5;entryDx=0;entryDy=0;" edge="1" parent="1" source="w8OO3xetrZ0Cky9kUs7j-19" target="w8OO3xetrZ0Cky9kUs7j-27">
          <mxGeometry relative="1" as="geometry" />
        </mxCell>
        <mxCell id="w8OO3xetrZ0Cky9kUs7j-19" value="Penalty Report" style="shape=parallelogram;html=1;strokeWidth=2;perimeter=parallelogramPerimeter;whiteSpace=wrap;rounded=1;arcSize=12;size=0.23;" vertex="1" parent="1">
          <mxGeometry x="640" y="720" width="110" height="60" as="geometry" />
        </mxCell>
        <mxCell id="w8OO3xetrZ0Cky9kUs7j-36" style="edgeStyle=orthogonalEdgeStyle;rounded=0;orthogonalLoop=1;jettySize=auto;html=1;exitX=0.5;exitY=1;exitDx=0;exitDy=0;entryX=0.5;entryY=0;entryDx=0;entryDy=0;entryPerimeter=0;" edge="1" parent="1" source="w8OO3xetrZ0Cky9kUs7j-27" target="w8OO3xetrZ0Cky9kUs7j-35">
          <mxGeometry relative="1" as="geometry" />
        </mxCell>
        <mxCell id="w8OO3xetrZ0Cky9kUs7j-27" value="Log Out" style="rounded=1;whiteSpace=wrap;html=1;absoluteArcSize=1;arcSize=14;strokeWidth=2;" vertex="1" parent="1">
          <mxGeometry x="382" y="830" width="86" height="50" as="geometry" />
        </mxCell>
        <mxCell id="w8OO3xetrZ0Cky9kUs7j-35" value="END" style="strokeWidth=2;html=1;shape=mxgraph.flowchart.start_1;whiteSpace=wrap;" vertex="1" parent="1">
          <mxGeometry x="375" y="910" width="100" height="60" as="geometry" />
        </mxCell>
      </root>
    </mxGraphModel>
  </diagram>
</mxfile>
